<svg id="Capa_1" data-name="Capa 1" xmlns="http://www.w3.org/2000/svg" viewBox="0 0 186.33 41"><defs><style>.cls-1{fill:#ec111a;}</style></defs><title>logo-scotiabank-nuevo-2</title><path class="cls-1" d="M81.83,17.48a7.23,7.23,0,1,0,7.22,7.22A7.23,7.23,0,0,0,81.83,17.48Zm0,10.41A3.19,3.19,0,1,1,85,24.7,3.19,3.19,0,0,1,81.83,27.89Z" transform="translate(-0.63 -1)"/><polygon class="cls-1" points="97.63 16.82 95.66 16.82 95.66 12.56 91.34 12.56 91.34 16.82 89.37 16.82 89.37 20.73 91.34 20.73 91.34 30.58 95.66 30.58 95.66 20.73 97.63 20.73 97.63 16.82"/><rect class="cls-1" x="99.61" y="16.82" width="4.32" height="13.76"/><path class="cls-1" d="M102.4,11.15a2.41,2.41,0,1,0,2.4,2.41A2.41,2.41,0,0,0,102.4,11.15Z" transform="translate(-0.63 -1)"/><path class="cls-1" d="M164.32,21.53a2.58,2.58,0,0,1,2.58,2.57v7.48h4.32V23.51c0-3.67-2.12-6-5.46-6a4.6,4.6,0,0,0-4,2.52V17.82h-4.32V31.58h4.32V24.1A2.58,2.58,0,0,1,164.32,21.53Z" transform="translate(-0.63 -1)"/><polygon class="cls-1" points="186.33 30.58 181.02 23.71 185.96 16.82 180.91 16.82 176.94 22.39 176.94 10.49 172.63 10.49 172.63 30.58 176.94 30.58 176.94 24.91 181.3 30.58 186.33 30.58"/><path class="cls-1" d="M59.74,27.88a6.31,6.31,0,0,0,.44-2.54A5.11,5.11,0,0,0,59,21.85a10.34,10.34,0,0,0-4.69-2.5A7.79,7.79,0,0,1,53,18.89a2.78,2.78,0,0,1-.91-.68,1.53,1.53,0,0,1-.39-1.11,1.63,1.63,0,0,1,.9-1.43,4.2,4.2,0,0,1,3.41,0,8.31,8.31,0,0,1,1.39.66l1.84-3.65a10.33,10.33,0,0,0-2.63-1.19,11.79,11.79,0,0,0-2.94-.37A7.87,7.87,0,0,0,51,11.6,6.29,6.29,0,0,0,48.88,13a6.4,6.4,0,0,0-1.4,2.09A6.64,6.64,0,0,0,47,17.6a5.34,5.34,0,0,0,1.63,3.65,8.84,8.84,0,0,0,3.25,1.82c.57.22,1.21.41,1.61.57a5.39,5.39,0,0,1,1.18.6,1.8,1.8,0,0,1,.63.7,1.57,1.57,0,0,1,.14.88A1.79,1.79,0,0,1,54.84,27a2.87,2.87,0,0,1-2,.55A6,6,0,0,1,50.45,27a16.84,16.84,0,0,1-2-1L46.34,29.7a9.81,9.81,0,0,0,6.12,2.23,10.49,10.49,0,0,0,3.25-.52A7.71,7.71,0,0,0,58.18,30,6.54,6.54,0,0,0,59.74,27.88Z" transform="translate(-0.63 -1)"/><path class="cls-1" d="M71.56,26.7a3.19,3.19,0,1,1,0-4l2.87-2.87a7.23,7.23,0,1,0,0,9.72Z" transform="translate(-0.63 -1)"/><path class="cls-1" d="M121.45,31.58V17.82h-4.21v1.45l-.39-.35a5.25,5.25,0,0,0-3.63-1.44,7.24,7.24,0,0,0,0,14.45,5.26,5.26,0,0,0,3.63-1.45l.39-.35v1.45ZM113.89,28a3.25,3.25,0,1,1,3.25-3.25A3.26,3.26,0,0,1,113.89,28Z" transform="translate(-0.63 -1)"/><path class="cls-1" d="M155.37,31.58V17.82h-4.21v1.45l-.39-.35a5.25,5.25,0,0,0-3.63-1.44,7.24,7.24,0,0,0,0,14.45,5.26,5.26,0,0,0,3.63-1.45l.39-.35v1.45ZM147.81,28a3.25,3.25,0,1,1,3.25-3.25A3.26,3.26,0,0,1,147.81,28Z" transform="translate(-0.63 -1)"/><path class="cls-1" d="M127.89,31.58V30.13l.39.35a5.26,5.26,0,0,0,3.63,1.45,7.24,7.24,0,0,0,0-14.45,5.25,5.25,0,0,0-3.63,1.44l-.39.35V11.49h-4.21V31.58ZM128,24.7A3.26,3.26,0,1,1,131.24,28,3.26,3.26,0,0,1,128,24.7Z" transform="translate(-0.63 -1)"/><path class="cls-1" d="M30.73,8.64H19.13A12.86,12.86,0,0,0,6.35,20.07h0A12.86,12.86,0,0,1,17.6,1h20Z" transform="translate(-0.63 -1)"/><path class="cls-1" d="M7.52,34.36H19.13A12.87,12.87,0,0,0,31.91,22.93h0A12.86,12.86,0,0,1,20.65,42H.63Z" transform="translate(-0.63 -1)"/><circle class="cls-1" cx="18.5" cy="20.5" r="10.33"/></svg>